
<svg version="1.0" xmlns="http://www.w3.org/2000/svg"
 width="1000.000000pt" height="900.000000pt" viewBox="0 0 1000.000000 900.000000"
 preserveAspectRatio="xMidYMid meet">

<g transform="translate(0.000000,900.000000) scale(0.100000,-0.100000)"
fill="#000000" stroke="none">
<path d="M1628 8765 c-26 -7 -62 -22 -80 -33 -18 -12 -236 -225 -485 -474
-382 -383 -453 -459 -462 -493 -41 -150 -15 -239 107 -367 l35 -37 -47 -53
c-53 -60 -71 -112 -62 -181 7 -65 30 -99 130 -195 83 -79 129 -104 191 -104
49 0 106 25 154 68 l51 46 45 -37 c25 -21 45 -40 45 -43 0 -3 -22 -28 -49 -57
-56 -59 -77 -116 -67 -179 11 -67 34 -101 129 -193 79 -77 99 -90 143 -100 41
-10 62 -9 104 2 51 14 65 22 126 78 l31 28 61 -20 c33 -11 105 -28 160 -37
l100 -17 551 -551 552 -552 -55 -104 c-133 -255 -216 -573 -216 -830 0 -340
121 -725 314 -999 63 -89 186 -211 306 -302 240 -183 412 -258 725 -316 159
-29 228 -52 268 -88 32 -31 34 -59 16 -337 -38 -578 144 -1039 591 -1502 367
-380 775 -593 1235 -646 125 -14 215 -13 352 5 541 71 1004 315 1537 809 496
460 869 1017 985 1468 57 222 74 354 68 543 -8 255 -60 477 -163 695 -133 279
-342 548 -595 764 -269 231 -503 360 -775 431 -214 56 -326 64 -702 50 -202
-7 -224 -6 -241 9 -35 32 -69 130 -95 272 -68 374 -178 590 -452 891 -270 297
-874 492 -1339 433 -207 -26 -429 -92 -625 -186 l-134 -65 -553 553 c-540 539
-553 553 -559 598 -10 73 -45 223 -59 250 -12 23 -9 28 36 78 67 73 83 134 59
222 -10 37 -31 64 -114 146 -89 89 -107 102 -151 111 -78 18 -136 0 -202 -61
l-54 -49 -44 43 -44 43 48 53 c62 67 79 127 61 207 -11 46 -23 63 -114 153
-90 90 -107 103 -153 113 -73 18 -144 -4 -210 -64 l-50 -44 -34 35 c-59 62
-122 102 -186 118 -71 19 -82 19 -145 1z m139 -218 c21 -18 79 -74 129 -125
50 -50 94 -92 97 -92 4 0 53 45 109 101 l101 101 66 -66 66 -66 -104 -104
-104 -104 181 -181 c100 -100 185 -181 189 -181 5 0 53 45 108 100 l100 100
65 -65 66 -66 -105 -104 -106 -104 62 -59 c64 -62 74 -83 94 -201 5 -31 9 -76
9 -101 l0 -45 639 -639 c351 -351 642 -637 647 -635 5 2 53 30 106 62 268 159
519 234 813 244 243 7 422 -25 650 -116 241 -97 383 -210 556 -443 147 -198
201 -335 264 -668 30 -159 64 -238 131 -310 73 -78 106 -85 384 -75 124 5 270
7 325 6 362 -7 698 -153 1036 -449 350 -307 565 -649 650 -1032 33 -151 37
-399 9 -564 -27 -159 -57 -264 -116 -410 -107 -259 -281 -530 -512 -797 -107
-124 -405 -420 -517 -515 -435 -366 -834 -555 -1275 -605 -330 -37 -697 57
-1003 257 -405 265 -736 674 -861 1061 -68 213 -81 371 -62 758 11 223 1 270
-70 341 -73 74 -164 110 -370 149 -302 57 -459 125 -669 293 -231 184 -354
366 -449 662 -62 191 -71 255 -70 470 0 152 4 203 22 286 43 199 126 403 238
580 30 47 54 89 54 93 0 3 -287 293 -637 643 l-638 638 -51 0 c-29 0 -89 7
-135 16 -82 15 -86 17 -144 75 -33 32 -65 59 -70 59 -5 0 -55 -45 -110 -100
l-100 -100 -65 65 -65 65 105 105 105 105 -180 180 c-99 99 -184 180 -190 180
-6 0 -55 -45 -110 -100 l-100 -100 -62 62 c-35 34 -63 67 -63 73 0 6 45 55
100 110 l100 99 -125 127 c-117 118 -125 128 -125 165 0 37 11 50 433 472 237
239 441 438 452 442 37 16 63 10 102 -23z"/>
</g>
</svg>
