
<svg version="1.0" xmlns="http://www.w3.org/2000/svg"
 width="1000.000000pt" height="1200.000000pt" viewBox="0 0 1000.000000 1200.000000"
 preserveAspectRatio="xMidYMid meet">

<g transform="translate(0.000000,1200.000000) scale(0.100000,-0.100000)"
fill="#000000" stroke="none">
<path d="M1711 11264 c-29 -8 -69 -25 -88 -38 -19 -13 -231 -224 -473 -469
-414 -419 -439 -447 -454 -498 -20 -67 -20 -141 -1 -208 12 -39 32 -69 82
-121 l65 -70 -50 -54 c-62 -68 -79 -125 -61 -200 11 -45 24 -63 113 -153 83
-83 109 -104 146 -113 86 -23 148 -8 217 54 l49 44 44 -38 45 -39 -46 -48
c-26 -26 -51 -57 -57 -68 -18 -38 -22 -92 -11 -146 11 -49 20 -62 113 -155 94
-94 106 -103 152 -110 88 -14 147 3 212 61 49 44 50 45 83 31 19 -8 89 -24
156 -37 l122 -23 523 -529 c287 -291 530 -540 541 -553 19 -24 18 -24 -41
-142 -91 -178 -163 -400 -193 -597 -18 -118 -15 -361 6 -480 43 -249 148 -518
280 -715 121 -183 390 -408 609 -511 122 -57 218 -86 412 -124 196 -39 269
-69 293 -119 11 -24 11 -57 2 -196 -31 -469 12 -735 172 -1059 104 -213 224
-375 434 -588 248 -252 538 -443 798 -527 287 -93 551 -115 815 -70 554 95
1026 375 1575 935 506 516 807 1043 890 1559 20 125 20 414 0 535 -76 462
-342 906 -756 1260 -408 348 -821 494 -1320 464 -73 -4 -179 -8 -235 -8 -92
-1 -102 1 -121 22 -37 40 -54 88 -78 216 -74 398 -156 584 -369 838 -221 265
-461 406 -846 498 -149 35 -227 45 -372 45 -271 0 -554 -69 -820 -199 l-117
-58 -544 551 -544 551 -6 65 c-8 76 -43 211 -62 237 -11 15 -7 24 40 75 65 70
83 127 64 204 -10 43 -26 63 -118 155 -94 94 -111 107 -156 116 -78 18 -136 0
-202 -61 l-55 -49 -38 44 -38 44 48 52 c61 66 78 127 60 206 -11 46 -23 63
-114 153 -90 91 -107 103 -153 114 -80 18 -140 1 -207 -61 l-53 -48 -49 50
c-61 63 -100 87 -167 105 -63 17 -76 16 -146 -2z m246 -316 l124 -123 100 104
101 104 66 -67 67 -66 -104 -104 -104 -105 178 -180 c98 -100 182 -181 187
-181 5 0 52 45 105 101 l96 100 68 -67 67 -66 -28 -27 c-15 -14 -60 -61 -100
-104 l-74 -78 58 -58 c66 -66 84 -116 95 -263 l6 -87 220 -223 c662 -672 1034
-1048 1038 -1048 2 0 52 29 112 65 178 106 362 178 568 222 118 26 448 25 567
-1 196 -42 413 -133 565 -235 125 -85 321 -325 410 -501 54 -108 92 -234 131
-435 20 -104 45 -208 56 -230 36 -72 89 -135 136 -163 46 -26 51 -27 202 -27
85 1 241 2 345 4 225 3 319 -10 500 -70 536 -178 1091 -771 1236 -1319 65
-249 65 -558 -2 -819 -49 -193 -170 -454 -310 -671 -40 -63 -77 -119 -81 -125
-239 -312 -482 -571 -743 -792 -545 -461 -1130 -658 -1646 -553 -323 66 -606
227 -888 503 -318 314 -496 612 -563 949 -24 121 -29 295 -18 658 4 144 3 170
-13 205 -24 52 -59 89 -131 136 -72 47 -119 62 -301 94 -314 56 -529 169 -784
410 -160 151 -313 475 -367 773 -21 119 -21 341 1 467 25 145 78 313 141 445
55 115 125 239 153 273 16 19 78 -45 -927 968 l-324 326 -82 6 c-151 10 -184
22 -246 88 -30 33 -59 59 -65 59 -5 0 -55 -45 -110 -100 l-100 -100 -65 65
-65 65 105 105 104 105 -179 180 c-99 99 -184 180 -191 180 -6 0 -53 -45 -104
-100 l-94 -101 -63 63 c-35 34 -63 67 -63 73 0 5 44 53 97 107 l96 97 -58 63
c-32 35 -62 65 -67 66 -4 2 -33 33 -63 68 -91 108 -102 88 214 412 148 153
346 353 440 446 214 212 191 210 368 34z"/>
<path d="M700 1811 c0 -169 5 -333 10 -362 32 -169 177 -302 377 -344 102 -22
291 -20 385 4 205 53 327 180 349 363 4 40 8 200 9 356 l0 282 -185 0 -184 0
-3 -332 c-3 -331 -3 -333 -26 -366 -38 -53 -92 -75 -177 -70 -59 3 -79 8 -113
31 -75 53 -77 60 -80 425 l-3 322 -179 0 -180 0 0 -309z"/>
<path d="M2090 1615 l0 -505 180 0 180 0 0 121 0 122 63 58 c34 32 67 58 72
58 6 0 72 -83 148 -185 l139 -184 215 0 c205 0 215 1 201 18 -8 9 -109 139
-223 287 -114 149 -214 277 -221 285 -11 13 20 45 205 215 l217 200 -204 3
-203 2 -202 -195 -202 -196 -3 201 -2 200 -180 0 -180 0 0 -505z"/>
<path d="M3480 1801 c0 -169 5 -333 10 -362 32 -169 177 -302 377 -344 102
-22 291 -20 385 4 205 53 327 180 349 363 4 40 8 200 9 356 l0 282 -185 0
-184 0 -3 -332 c-3 -331 -3 -333 -26 -366 -38 -53 -92 -75 -177 -70 -59 3 -79
8 -113 31 -75 53 -77 60 -80 425 l-3 322 -179 0 -180 0 0 -309z"/>
<path d="M4870 1595 l0 -505 193 0 c107 0 302 -3 435 -7 l242 -6 0 125 0 126
-31 6 c-17 3 -132 6 -255 6 l-224 0 0 380 0 380 -180 0 -180 0 0 -505z"/>
<path d="M5950 1585 l0 -505 158 0 c87 0 315 -3 505 -7 l347 -6 0 115 0 115
-157 6 c-87 4 -233 7 -325 7 l-168 0 0 81 0 81 285 -7 285 -8 0 115 0 115 -37
7 c-21 3 -149 6 -285 6 l-248 0 0 79 0 78 315 -5 315 -5 0 115 0 115 -182 6
c-99 4 -322 7 -495 7 l-313 0 0 -505z"/>
<path d="M7210 1575 l0 -505 193 0 c107 0 302 -3 435 -7 l242 -6 0 125 0 126
-31 6 c-17 3 -132 6 -255 6 l-224 0 0 380 0 380 -180 0 -180 0 0 -505z"/>
<path d="M8290 1565 l0 -505 158 0 c87 0 315 -3 505 -7 l347 -6 0 115 0 115
-157 6 c-87 4 -233 7 -325 7 l-168 0 0 81 0 81 285 -7 285 -8 0 115 0 115 -37
7 c-21 3 -149 6 -285 6 l-248 0 0 79 0 78 315 -5 315 -5 0 115 0 115 -182 6
c-99 4 -322 7 -495 7 l-313 0 0 -505z"/>
</g>
</svg>
